<?xml version="1.0" standalone="no"?><!DOCTYPE svg PUBLIC "-//W3C//DTD SVG 1.1//EN" "http://www.w3.org/Graphics/SVG/1.1/DTD/svg11.dtd"><svg t="1670058462252" class="icon" viewBox="0 0 1024 1024" version="1.1" xmlns="http://www.w3.org/2000/svg" p-id="3050" width="16" height="16" xmlns:xlink="http://www.w3.org/1999/xlink"><path d="M441.9584 566.3232 102.6048 566.3232c-8.0384 0-14.5408 6.5024-14.5408 14.5408l0 339.3536c0 8.0384 6.5024 14.5408 14.5408 14.5408l339.3536 0c8.0384 0 14.5408-6.5024 14.5408-14.5408L456.4992 580.8384C456.4736 572.8 449.9968 566.3232 441.9584 566.3232zM411.4176 889.6512 133.1456 889.6512 133.1456 611.3792l278.2976 0L411.4432 889.6512zM921.3952 566.3232 582.0416 566.3232c-8.0384 0-14.5408 6.5024-14.5408 14.5408l0 339.3536c0 8.0384 6.5024 14.5408 14.5408 14.5408l339.3536 0c8.0384 0 14.5408-6.5024 14.5408-14.5408L935.936 580.8384C935.9104 572.8 929.408 566.3232 921.3952 566.3232zM890.8544 889.6512 612.5824 889.6512 612.5824 611.3792l278.2976 0L890.88 889.6512zM441.9584 86.8864 102.6048 86.8864c-8.0384 0-14.5408 6.5024-14.5408 14.5408l0 339.3536c0 8.0384 6.5024 14.5408 14.5408 14.5408l339.3536 0c8.0384 0 14.5408-6.5024 14.5408-14.5408L456.4992 101.4016C456.4736 93.3632 449.9968 86.8864 441.9584 86.8864zM411.4176 410.2144 133.1456 410.2144 133.1456 131.9424l278.2976 0L411.4432 410.2144zM921.3952 86.8864 582.0416 86.8864c-8.0384 0-14.5408 6.5024-14.5408 14.5408l0 339.3536c0 8.0384 6.5024 14.5408 14.5408 14.5408l339.3536 0c8.0384 0 14.5408-6.5024 14.5408-14.5408L935.936 101.4016C935.9104 93.3632 929.408 86.8864 921.3952 86.8864zM890.8544 410.2144 612.5824 410.2144 612.5824 131.9424l278.2976 0L890.88 410.2144z" p-id="3051" fill="#0064c8"></path></svg>